<?xml version="1.0" encoding="UTF-8" standalone="no"?>
<!DOCTYPE svg PUBLIC "-//W3C//DTD SVG 1.1//EN" "http://www.w3.org/Graphics/SVG/1.1/DTD/svg11.dtd">
<svg width="100%" height="100%" viewBox="0 0 284 137" version="1.1" xmlns="http://www.w3.org/2000/svg" xmlns:xlink="http://www.w3.org/1999/xlink" xml:space="preserve" xmlns:serif="http://www.serif.com/" style="fill-rule:evenodd;clip-rule:evenodd;stroke-linejoin:round;stroke-miterlimit:2;">
    <g transform="matrix(1,0,0,1,-155.668,-211.79)">
        <path d="M230.909,260.837C230.909,264.38 230.184,267.681 228.735,270.741C226.077,276.458 221.407,280.444 214.724,282.699C212.389,283.504 210.376,283.907 208.685,283.907C203.692,283.907 199.384,282.981 195.761,281.129L195.761,279.921C201.639,281.209 207.074,280.565 212.067,277.988C216.495,275.734 219.515,272.03 221.125,266.876C221.608,265.266 221.85,263.736 221.85,262.286L221.85,259.629C221.689,253.992 220.199,249.503 217.381,246.162C214.563,242.82 210.617,241.149 205.544,241.149L191.654,241.149L191.654,313.257C191.735,315.351 192.52,317.142 194.009,318.633C195.499,320.122 197.291,320.867 199.384,320.867L200.954,320.867L200.954,322.074L174.503,322.074L174.503,320.867L176.073,320.867C178.166,320.867 179.958,320.122 181.448,318.633C182.937,317.142 183.723,315.351 183.803,313.257L183.803,245.739C183.562,243.726 182.716,242.055 181.267,240.726C179.817,239.398 178.086,238.733 176.073,238.733L174.624,238.733L174.503,237.526L206.027,237.526C213.757,237.526 219.837,239.599 224.266,243.746C228.694,247.893 230.909,253.59 230.909,260.837Z" style="fill-rule:nonzero;"/>
        <path d="M287.919,323.765C275.196,323.685 264.829,319.618 256.816,311.566C248.805,303.514 244.799,292.905 244.799,279.74C244.799,266.574 248.805,255.965 256.816,247.913C264.829,239.861 275.438,235.835 288.643,235.835C299.434,235.835 308.975,238.572 317.269,244.048L319.685,261.078L318.598,261.078C316.826,254.154 313.243,248.819 307.848,245.075C302.453,241.33 296.052,239.458 288.643,239.458C278.095,239.458 269.66,243.122 263.339,250.449C257.018,257.777 253.858,267.48 253.858,279.558C253.858,291.637 256.978,301.36 263.218,308.728C269.459,316.096 277.692,319.901 287.919,320.143C296.937,320.143 304.466,317.686 310.505,312.774C317.028,307.459 320.973,298.803 322.342,286.805L323.308,286.805L321.859,305.768C314.531,317.766 303.218,323.765 287.919,323.765Z" style="fill-rule:nonzero;"/>
        <path d="M395.416,320.867C397.51,320.867 399.302,320.122 400.791,318.633C402.281,317.142 403.066,315.391 403.147,313.378L403.147,282.095L353.746,282.095L353.746,313.378C353.746,315.471 354.511,317.243 356.041,318.693C357.571,320.143 359.383,320.867 361.476,320.867L363.046,320.867L363.046,322.074L336.595,322.074L336.595,320.867L338.165,320.867C340.258,320.867 342.05,320.143 343.54,318.693C345.029,317.243 345.815,315.471 345.895,313.378L345.895,246.222C345.815,244.128 345.029,242.357 343.54,240.908C342.05,239.458 340.258,238.733 338.165,238.733L336.595,238.733L336.595,237.526L363.046,237.526L363.046,238.733L361.476,238.733C359.383,238.733 357.591,239.458 356.101,240.908C354.612,242.357 353.827,244.128 353.746,246.222L353.746,278.471L403.147,278.471L403.147,246.222C403.066,243.323 401.778,241.149 399.282,239.7C398.074,239.056 396.785,238.733 395.416,238.733L393.846,238.733L393.846,237.526L420.298,237.526L420.298,238.733L418.728,238.733C416.634,238.733 414.843,239.478 413.353,240.968C411.863,242.458 411.078,244.249 410.998,246.343L410.998,313.378C411.078,315.471 411.863,317.243 413.353,318.693C414.843,320.143 416.634,320.867 418.728,320.867L420.298,320.867L420.298,322.074L393.846,322.074L393.846,320.867L395.416,320.867Z" style="fill-rule:nonzero;"/>
        <path d="M435.103,221.768C432.879,221.768 431.073,223.573 431.073,225.798C431.073,228.022 432.879,229.827 435.103,229.827C437.327,229.827 439.133,228.022 439.133,225.798C439.133,223.573 437.327,221.768 435.103,221.768ZM159.698,221.768C161.922,221.768 163.728,223.573 163.728,225.798C163.728,228.022 161.922,229.827 159.698,229.827C157.474,229.827 155.668,228.022 155.668,225.798C155.668,223.573 157.474,221.768 159.698,221.768ZM423.713,224.546C424.163,223.691 425.061,223.108 426.094,223.108C427.579,223.108 428.784,224.313 428.784,225.798C428.784,227.282 427.579,228.488 426.094,228.488C425.061,228.488 424.163,227.904 423.713,227.049L171.088,227.049C170.637,227.904 169.74,228.488 168.707,228.488C167.222,228.488 166.017,227.282 166.017,225.798C166.017,224.313 167.222,223.108 168.707,223.108C169.74,223.108 170.637,223.691 171.088,224.546L423.713,224.546ZM183.975,211.79L410.826,211.79C410.958,211.79 411.086,211.843 411.18,211.937C411.273,212.031 411.326,212.158 411.326,212.291C411.326,212.424 411.273,212.551 411.18,212.645C411.086,212.738 410.958,212.791 410.826,212.791L183.975,212.791C183.699,212.791 183.475,212.567 183.475,212.291C183.475,212.014 183.699,211.79 183.975,211.79Z"/>
        <path d="M435.103,337.832C432.879,337.832 431.073,336.027 431.073,333.802C431.073,331.578 432.879,329.772 435.103,329.772C437.327,329.772 439.133,331.578 439.133,333.802C439.133,336.027 437.327,337.832 435.103,337.832ZM159.698,337.832C161.922,337.832 163.728,336.027 163.728,333.802C163.728,331.578 161.922,329.772 159.698,329.772C157.474,329.772 155.668,331.578 155.668,333.802C155.668,336.027 157.474,337.832 159.698,337.832ZM423.713,335.053C424.163,335.909 425.061,336.492 426.094,336.492C427.579,336.492 428.784,335.287 428.784,333.802C428.784,332.318 427.579,331.112 426.094,331.112C425.061,331.112 424.163,331.696 423.713,332.551L171.088,332.551C170.637,331.696 169.74,331.112 168.707,331.112C167.222,331.112 166.017,332.318 166.017,333.802C166.017,335.287 167.222,336.492 168.707,336.492C169.74,336.492 170.637,335.909 171.088,335.053L423.713,335.053ZM183.975,347.81L410.826,347.81C410.958,347.81 411.086,347.757 411.18,347.663C411.273,347.569 411.326,347.442 411.326,347.309C411.326,347.176 411.273,347.049 411.18,346.955C411.086,346.861 410.958,346.809 410.826,346.809L183.975,346.809C183.699,346.809 183.475,347.033 183.475,347.309C183.475,347.586 183.699,347.81 183.975,347.81Z"/>
    </g>
</svg>
